<?xml version="1.0" encoding="UTF-8" standalone="no"?>
<!-- Created with Inkscape (http://www.inkscape.org/) -->

<svg
   width="512mm"
   height="512mm"
   viewBox="0 0 512 512"
   version="1.1"
   id="svg1"
   xml:space="preserve"
   xmlns:xlink="http://www.w3.org/1999/xlink"
   xmlns="http://www.w3.org/2000/svg"
   xmlns:svg="http://www.w3.org/2000/svg"><defs
     id="defs1"><linearGradient
       id="linearGradient20"><stop
         style="stop-color:#000000;stop-opacity:1;"
         offset="0.42561403"
         id="stop20" /><stop
         style="stop-color:#000000;stop-opacity:0;"
         offset="0.69315791"
         id="stop23" /></linearGradient><linearGradient
       xlink:href="#linearGradient20"
       id="linearGradient25"
       x1="366.12704"
       y1="70.960297"
       x2="426.52731"
       y2="45.225597"
       gradientUnits="userSpaceOnUse" /></defs><g
     id="layer5"
     style="display:none"><rect
       style="display:inline;fill:#808080;fill-opacity:1;stroke:#999999;stroke-width:0.264448"
       id="rect1"
       width="511.73557"
       height="511.73557"
       x="0.1322237"
       y="0.1322237" /></g><g
     id="layer3"
     style="display:inline"><g
       id="g5"
       style="display:inline;fill:#ffffff;fill-opacity:1"
       transform="matrix(4.6755575,-1.8979434,1.8979406,4.6755503,-1707.7312,738.4441)"><path
         id="path342-0"
         style="display:inline;fill:#ffffff;fill-opacity:1;stroke:none;stroke-width:0.990867;stroke-linecap:round;stroke-dasharray:none;stroke-opacity:1;paint-order:markers stroke fill"
         d="m 399.88933,14.507026 c -0.84762,-0.326971 -1.97151,-0.507079 -3.46153,-0.503144 -11.92017,0.03147 -0.34929,11.714908 -11.35004,16.305639 -9.96944,4.160372 -11.04091,-8.953808 -17.41111,-5.159248 -0.65882,0.392834 -1.37446,0.965987 -2.16259,1.758266 -2.4777,2.490817 -2.78869,4.252538 -2.12231,5.783464 L 392.08501,44.3435 a 14.239507,14.239529 29.940657 0 1 16.76982,6.293867 14.239507,14.239529 29.940657 0 1 0.25744,0.618 l 29.08993,11.808459 c 1.30009,-0.72056 2.12942,-2.225492 2.12105,-5.395369 -0.0315,-11.920166 -11.71484,-0.34917 -16.30555,-11.34992 -4.59073,-11.000766 11.85197,-11.16719 3.40088,-19.57377 -8.45106,-8.406588 -8.53047,8.037027 -19.55533,3.504438 -9.64672,-3.965992 -2.0406,-13.453382 -7.97392,-15.742179 z M 354.8839,52.504304 c -1.30025,0.720495 -2.12968,2.225376 -2.12132,5.395482 0.0315,11.920177 11.71538,0.348936 16.30609,11.349695 4.59073,11.000778 -11.85192,11.16711 -3.40084,19.573675 8.45107,8.406584 8.53041,-8.037028 19.55524,-3.504477 11.02484,4.532585 -0.48462,16.276821 11.43554,16.245361 11.92018,-0.0315 0.34928,-11.714891 11.35004,-16.305638 11.00075,-4.590732 11.16655,11.852401 19.57313,3.401302 2.47784,-2.490956 2.78872,-4.252749 2.1222,-5.783731 L 401.09304,71.261954 a 14.239507,14.239529 29.940657 0 1 -16.8724,-6.33385 14.239507,14.239529 29.940657 0 1 -0.25838,-0.62004 z" /><path
         id="path6"
         style="display:inline;fill:url(#linearGradient25);fill-opacity:1;fill-rule:evenodd;stroke-width:0.0524333"
         d="m 406.38419,33.962266 a 25.902032,25.902072 0.66069767 0 0 -27.39861,5.063792 l 9.72043,3.945808 a 16.991779,16.991796 22.093683 0 1 14.40911,-0.77058 16.991779,16.991796 22.093683 0 1 9.79517,10.595812 l 9.5911,3.893308 a 25.902032,25.902072 0.66069767 0 0 -16.1172,-22.72814 z m -35.6172,24.989452 a 25.902032,25.902072 0.66069767 0 0 16.13259,23.010699 25.902032,25.902072 0.66069767 0 0 27.60773,-5.255217 l -9.57952,-3.888608 a 16.991779,16.991796 22.093683 0 1 -14.59462,0.8709 16.991779,16.991796 22.093683 0 1 -9.83958,-10.789462 z"
         transform="translate(2.1729142e-6)" /><path
         style="color:#000000;fill:#787878;fill-opacity:1;stroke:none;stroke-width:0.990867;stroke-linecap:round;stroke-dasharray:none;stroke-opacity:1;paint-order:markers stroke fill"
         d="m 351.91797,38.105469 a 1.44944,1.44944 0 0 0 -1.88867,0.796875 1.44944,1.44944 0 0 0 0.79882,1.888672 c 2.74578,1.114575 5.49062,2.229218 8.23633,3.34375 4.31558,1.751766 8.80455,2.50576 11.99805,4.824218 1.70623,1.238704 2.91544,3.468836 4.27734,5.822266 1.36191,2.35343 2.94816,4.896009 5.85547,6.076172 2.90731,1.180163 5.81471,0.462914 8.43164,-0.275391 2.61693,-0.738305 5.04011,-1.494377 7.12696,-1.193359 4.19882,0.605662 8.44398,2.328004 11.87695,4.820312 1.70623,1.238704 2.91544,3.470789 4.27734,5.824219 1.36191,2.35343 2.94816,4.894056 5.85547,6.074219 2.90731,1.180163 5.81471,0.462914 8.43164,-0.275391 2.61693,-0.738305 5.04011,-1.494377 7.12696,-1.193359 1.9273,0.278005 3.81193,1.59129 6.14453,2.539062 a 1.44944,1.44944 0 0 0 1.88867,-0.796875 1.44944,1.44944 0 0 0 -0.79688,-1.888672 c -1.87947,-0.763659 -3.99288,-2.31453 -6.82226,-2.722656 -3.00801,-0.43389 -5.80509,0.559668 -8.32813,1.271485 -2.52304,0.711816 -4.67642,1.143301 -6.55468,0.380859 -1.87827,-0.762444 -3.12251,-2.572801 -4.43555,-4.841797 -1.31304,-2.268995 -2.62462,-4.931322 -5.08399,-6.716797 -3.83398,-2.783448 -8.47671,-4.669292 -13.16601,-5.345703 -3.00801,-0.43389 -5.80509,0.561621 -8.32813,1.273438 -2.52304,0.711816 -4.67642,1.143301 -6.55468,0.380859 -1.87827,-0.762444 -3.12251,-2.572801 -4.43555,-4.841797 -1.31304,-2.268995 -2.62462,-4.931322 -5.08399,-6.716797 -3.94662,-2.865222 -8.72206,-3.586136 -12.60937,-5.164062 -2.74578,-1.114558 -5.49258,-2.229206 -8.23828,-3.34375 z"
         id="path11" /><path
         style="color:#000000;fill:#ffffff;fill-opacity:1;stroke:none;stroke-width:0.990867;stroke-linecap:round;stroke-dasharray:none;stroke-opacity:1;paint-order:markers stroke fill"
         d="m 360.81641,34.333984 c -0.62992,0.0021 -1.24272,0.127627 -1.79297,0.320313 -1.10051,0.385371 -2.06038,1.000782 -2.97266,1.585937 -1.82456,1.17031 -3.34787,2.025782 -4.35351,1.794922 a 1.44944,1.44944 0 0 0 -1.73633,1.087891 1.44944,1.44944 0 0 0 1.08789,1.738281 c 2.64583,0.607389 4.79037,-1.042457 6.5664,-2.181641 0.88802,-0.569591 1.7123,-1.059735 2.36719,-1.289062 0.65489,-0.229327 1.03521,-0.238923 1.48047,-0.02539 1.05506,0.505967 1.61741,1.344984 2.04102,2.703125 0.4236,1.358142 0.59704,3.154759 0.75586,5.052735 0.15881,1.897975 0.30649,3.897363 0.84179,5.765625 0.53531,1.868261 1.53211,3.678551 3.36719,4.785156 1.44065,0.868749 3.04519,1.002762 4.51367,0.800781 1.46848,-0.20198 2.86272,-0.702367 4.20117,-1.189453 2.67691,-0.974172 5.00771,-1.760912 6.70899,-1.070312 1.70127,0.690597 2.82394,2.87899 4.06445,5.443359 0.62026,1.282184 1.26943,2.612878 2.18164,3.78125 0.91221,1.168372 2.15637,2.191076 3.79492,2.572266 2.06539,0.480484 4.02021,-0.07392 5.6836,-0.996094 1.66339,-0.922177 3.13204,-2.202692 4.54883,-3.419922 1.41678,-1.21723 2.78171,-2.369802 4.0664,-3.082031 1.2847,-0.71223 2.3929,-0.994254 3.61914,-0.708985 0.87312,0.20312 1.51471,0.696505 2.16797,1.533203 0.65326,0.836699 1.24743,2.000747 1.85742,3.261719 1.21999,2.521946 2.4997,5.613228 5.58399,6.865235 3.08429,1.252006 6.15643,-0.07319 8.78906,-1.03125 1.31631,-0.479028 2.55386,-0.898327 3.60547,-1.042969 1.05161,-0.144642 1.85344,-0.05276 2.62109,0.410156 0.90536,0.545957 1.63656,1.672379 2.14844,3.183594 0.51188,1.511215 0.78887,3.335562 0.94531,4.990234 a 1.44944,1.44944 0 0 0 1.57813,1.306641 1.44944,1.44944 0 0 0 1.30664,-1.580078 c -0.16681,-1.764383 -0.45048,-3.776182 -1.08399,-5.646485 -0.63351,-1.870302 -1.63378,-3.67337 -3.39648,-4.736328 -1.44064,-0.86875 -3.04519,-1.002761 -4.51367,-0.800781 -1.46848,0.20198 -2.86467,0.704321 -4.20313,1.191406 -2.67691,0.974171 -5.00575,1.760912 -6.70703,1.070313 -1.70127,-0.690598 -2.82394,-2.878992 -4.06445,-5.44336 -0.62026,-1.282183 -1.26943,-2.612877 -2.18164,-3.78125 -0.91222,-1.168372 -2.15832,-2.191075 -3.79688,-2.572265 -2.06538,-0.480485 -4.01825,0.07196 -5.68164,0.99414 -1.66339,0.922177 -3.13204,2.202692 -4.54883,3.419922 -1.41678,1.21723 -2.78171,2.371755 -4.0664,3.083985 -1.2847,0.712229 -2.3929,0.9923 -3.61914,0.707031 -0.87312,-0.203119 -1.51471,-0.694551 -2.16797,-1.53125 -0.65326,-0.836699 -1.24743,-2.000745 -1.85742,-3.261719 -1.22,-2.521947 -2.4997,-5.613228 -5.58399,-6.865234 -3.08429,-1.252007 -6.15644,0.07319 -8.78906,1.03125 -1.31631,0.479028 -2.55386,0.898326 -3.60547,1.042968 -1.05161,0.144643 -1.85539,0.05081 -2.62305,-0.412109 -1.05895,-0.638581 -1.65782,-1.641483 -2.07617,-3.101562 -0.41835,-1.46008 -0.58092,-3.303098 -0.74023,-5.207032 -0.15932,-1.903934 -0.31312,-3.868033 -0.87696,-5.675781 -0.56384,-1.807748 -1.65008,-3.538809 -3.55664,-4.453125 -0.62189,-0.298236 -1.26852,-0.420115 -1.89843,-0.41797 z"
         id="path12" /><path
         style="color:#000000;fill:#000000;fill-opacity:1;stroke:none;stroke-width:0.990867;stroke-linecap:round;stroke-dasharray:none;stroke-opacity:1;paint-order:markers stroke fill"
         d="m 352.125,38.208984 a 1.44944,1.44944 0 0 0 -1.99023,0.486328 1.44944,1.44944 0 0 0 0.48632,1.992188 c 0.88203,0.535401 1.37847,2.211341 1.8711,4.322266 0.24631,1.055462 0.50486,2.165586 1.02539,3.208984 0.52053,1.043398 1.40722,2.064692 2.71484,2.503906 2.0036,0.672983 3.98823,0.188454 5.65235,-0.71289 1.66411,-0.901345 3.14282,-2.200213 4.58398,-3.453125 1.44116,-1.252913 2.84339,-2.461931 4.16211,-3.21875 1.31872,-0.756819 2.45183,-1.05942 3.6582,-0.783204 0.8915,0.204122 1.55012,0.705457 2.22071,1.552735 0.67058,0.847278 1.28207,2.02389 1.91015,3.296875 1.25617,2.54597 2.57768,5.658037 5.70117,6.90039 3.06289,1.218258 6.0897,-0.119766 8.67969,-1.085937 1.295,-0.483085 2.51114,-0.905552 3.54297,-1.054688 1.03183,-0.149135 1.81658,-0.06218 2.57031,0.388672 1.07959,0.645766 1.67852,1.615219 2.10352,3.019532 0.425,1.404312 0.59893,3.18353 0.76562,5.044921 0.16669,1.861392 0.3262,3.804706 0.875,5.626954 0.5488,1.822247 1.56226,3.582241 3.37891,4.677734 1.44064,0.868749 3.04519,1.004715 4.51367,0.802734 1.46848,-0.20198 2.86467,-0.70432 4.20313,-1.191406 2.6769,-0.974172 5.00575,-1.76091 6.70703,-1.070312 1.70128,0.690599 2.82394,2.878991 4.06445,5.443359 0.62026,1.282184 1.26943,2.612878 2.18164,3.78125 0.91221,1.168372 2.15636,2.191076 3.79492,2.572266 2.10076,0.488715 4.07828,0.01087 5.77344,-0.88086 1.69516,-0.891733 3.18916,-2.166905 4.67969,-3.443359 a 1.44944,1.44944 0 0 0 0.1582,-2.042969 1.44944,1.44944 0 0 0 -2.04297,-0.158203 c -1.47661,1.264538 -2.85231,2.398361 -4.14453,3.078125 -1.29221,0.679764 -2.42082,0.935899 -3.76562,0.623047 -0.87312,-0.20312 -1.51472,-0.694551 -2.16797,-1.53125 -0.65326,-0.836699 -1.24743,-2.000746 -1.85742,-3.261719 -1.22,-2.521947 -2.49969,-5.613228 -5.58399,-6.865234 -3.08429,-1.252007 -6.15644,0.07319 -8.78906,1.03125 -1.31631,0.479028 -2.55386,0.898326 -3.60547,1.042968 -1.05161,0.144643 -1.85539,0.05081 -2.62305,-0.412109 -1.07738,-0.649695 -1.67563,-1.623479 -2.09961,-3.03125 -0.42397,-1.407771 -0.59694,-3.188921 -0.76367,-5.050781 -0.16673,-1.861861 -0.32793,-3.804426 -0.8789,-5.625 -0.55098,-1.820574 -1.56782,-3.578811 -3.38868,-4.667969 -1.43013,-0.855442 -3.02214,-0.979181 -4.47265,-0.769531 -1.45052,0.20965 -2.82508,0.71555 -4.14258,1.207031 -2.635,0.982962 -4.92307,1.774664 -6.5957,1.109375 -1.73949,-0.691873 -2.89528,-2.902868 -4.17188,-5.490234 -0.6383,-1.293684 -1.30595,-2.636979 -2.23633,-3.8125 -0.93038,-1.175521 -2.19218,-2.201034 -3.84765,-2.580078 -2.08768,-0.478004 -4.06261,0.128427 -5.74805,1.095703 -1.68544,0.967276 -3.1848,2.296236 -4.62109,3.544922 -1.4363,1.248686 -2.81268,2.41485 -4.0625,3.091796 -1.24983,0.676947 -2.23764,0.886516 -3.34766,0.513672 -0.46812,-0.157235 -0.73516,-0.429873 -1.04492,-1.050781 -0.30976,-0.620908 -0.55712,-1.546828 -0.79688,-2.574219 -0.47952,-2.05478 -0.86886,-4.731998 -3.18945,-6.140625 z"
         id="path13" /></g></g><g
     id="layer4"
     style="display:none"><g
       id="g91"
       style="display:inline;fill:#ff9ba3;fill-opacity:1"
       transform="translate(-15.137506,-11.773615)"><path
         id="path61"
         style="color:#000000;display:inline;fill:#ffd7e0;fill-opacity:0.1;-inkscape-stroke:none"
         d="m 218.63265,127.64802 c -8.54821,0.9092 13.26343,92.50491 -2.86856,134.88893 -4.63429,-14.18486 -13.68463,-26.8982 -26.54567,-35.8066 -12.37795,-8.57384 -26.82189,-12.70458 -41.18146,-12.43335 -14.35964,0.27124 -28.63584,4.94538 -40.68124,13.98054 -14.697418,11.02445 -24.040923,27.06132 -26.956493,44.373 H 63.527389 c -3.588328,0 -7.714775,2.28402 -7.714775,6.92158 0,3.59555 2.717091,6.90855 6.236312,6.92464 l 17.414957,0.0796 c 0.08677,2.65222 0.290967,5.30976 0.684196,7.96282 h -16.56643 c -3.585319,0 -7.712708,2.28532 -7.712708,6.92209 0,3.59549 2.718923,6.91176 6.238379,6.92464 l 21.619352,0.0791 c 10.038035,27.23633 35.922138,45.55901 65.054428,45.79876 l 124.72262,0.0217 c 3.06361,0.006 6.97888,-2.41152 6.97888,-6.96088 0,-2.58326 -1.59919,-4.56199 -3.50624,-6.04149 -7.18522,-5.57434 -10.12754,-15.9213 -7.50756,-25.32921 2.75093,-9.87778 10.92716,-16.39894 20.11712,-16.63309 9.18996,-0.23415 17.61584,5.84233 20.8008,15.55667 3.09108,9.42806 0.63956,20.39587 -6.77737,26.05113 -2.14106,1.63251 -4.20491,3.52764 -4.20491,6.38824 0,3.83687 3.1155,6.95589 6.951,6.96236 l 19.88871,0.013 c 8.497,0.0108 16.6678,-3.40122 22.83013,-9.42579 l -0.007,-0.007 21.18217,-21.18217 21.17752,21.17752 c 0.10473,0.11619 0.25483,0.26275 0.37514,0.37521 l 0.0832,0.0832 c 0.0381,0.0381 0.0803,0.0706 0.11937,0.10748 9.67528,9.01381 23.69927,11.41876 35.64331,5.90455 12.02397,-5.55106 19.68882,-17.85142 20.07526,-31.41824 0.0169,-0.59404 0.0284,-0.40972 0.0341,-0.61494 0.23472,-8.47203 0,-25.42584 0,-25.42584 0,-2.86435 -2.0966,-6.29109 -6.0172,-6.29109 -3.92072,0 -6.01772,3.42674 -6.01772,6.29109 0,0 -0.0953,21.15072 0,25.42584 0.0953,4.27512 0.0122,0.154 0.0103,0.23099 -0.22733,9.25662 -5.46627,17.38368 -13.11186,20.91345 -7.73381,3.5705 -16.50099,2.03154 -22.82031,-4.14652 l -5.2e-4,5.2e-4 -21.08191,-21.08192 15.01923,-15.01923 c 2.25578,-2.25577 2.31672,-6.16857 0.007,-8.47856 -2.30999,-2.30985 -6.22394,-2.25008 -8.47958,0.006 l -1.63603,1.59882 c -7.85294,6.80556 -18.56875,6.9091 -26.52861,0.27491 l -1.97456,-1.97455 c -1.122,-1.122 -2.66092,-1.70398 -4.20956,-1.71566 -1.54865,-0.0117 -3.10702,0.54698 -4.26744,1.70739 -2.32084,2.32083 -2.23573,6.23301 0.008,8.477 l 15.12,15.12001 -21.08656,21.08657 -10e-4,-0.001 c -4.00984,3.92024 -9.13542,6.01669 -14.42961,6.00997 l -8.21242,0.01 c 5.70114,-9.05147 7.22044,-20.53938 3.73569,-31.16812 -4.56165,-13.91368 -17.00005,-23.56476 -31.12936,-23.81405 -0.45579,-0.008 -0.91343,-0.007 -1.37253,0.005 -14.69108,0.37431 -27.3063,10.83095 -31.36501,25.40465 -2.84872,10.22893 -1.16483,21.01318 4.22662,29.57235 l -112.74428,-0.0274 c -24.99746,0.0169 -47.14865,-15.9309 -55.062276,-39.64254 -7.913633,-23.71157 0.219837,-49.76801 20.216856,-64.76762 19.99702,-14.99966 47.28645,-15.51531 67.83565,-1.28158 20.12861,13.94246 29.24205,38.91171 23.01772,62.47836 -0.2028,0.82642 -0.44339,1.58262 -0.44339,2.44171 0,4.25344 3.50585,6.88706 8.0884,6.87094 l 22.48028,-0.0791 c 3.51925,-0.0124 6.23631,-3.32909 6.23631,-6.92465 0,-4.63713 -4.48767,-6.92208 -7.71064,-6.92208 h -15.47916 c 0.383,-2.65441 0.63108,-5.3124 0.71417,-7.96283 l 16.29565,-0.0791 c 3.51919,-0.0171 6.23631,-3.32912 6.23631,-6.92464 0,-4.63733 -4.07973,-6.92209 -7.71064,-6.92209 h -15.78457 c -0.0844,-0.49537 -0.23016,-0.97607 -0.32504,-1.46916 0.70689,-0.11603 1.54418,-0.27687 2.58175,-0.55811 18.56525,1.73334 69.61448,-1.8266 75.18869,-92.09929 3.22611,-52.24602 -3.47981,-39.5057 -16.79277,-9.43301 -6.03177,-30.21659 -8.34939,-21.75611 -11.73882,-1.02681 -0.20745,-1.129 -0.41218,-2.25508 -0.64337,-3.4091 -10.04893,-50.16082 -13.29844,-35.42454 -18.81901,-2.98689 -3.56413,-20.88281 -5.44311,-15.17604 -7.60987,1.55339 -0.98028,-2.16656 -1.96075,-4.33343 -3.07319,-6.58151 -10.34424,-20.9039 -15.8384,-29.18711 -18.46451,-28.9078 z" /><ellipse
         style="display:inline;fill:none;fill-opacity:1;stroke:#ffd7e0;stroke-width:5.996;stroke-linejoin:miter;stroke-dasharray:none;stroke-opacity:0.1"
         id="path5-0-7"
         ry="11.311218"
         rx="11.311267"
         cy="266.7865"
         cx="441.87775" /><path
         id="path46"
         style="color:#000000;display:inline;fill:#ffd7e0;fill-opacity:0.1;-inkscape-stroke:none"
         d="m 155.57397,255.74821 c -3.59557,0 -6.56039,2.73595 -6.92465,6.23632 h -0.0811 v 39.36193 c -0.006,0.12078 -0.01,0.24201 -0.01,0.36432 0,0.12232 0.004,0.24406 0.01,0.36484 v 0.90279 h 0.10801 c 0.59748,3.23697 3.43712,5.69526 6.84506,5.69526 3.40794,0 6.2481,-2.45829 6.84557,-5.69526 h 0.12919 v -39.51594 c 0.0266,-0.24697 0.0414,-0.49742 0.0414,-0.75137 0,-3.84097 -3.12243,-6.96289 -6.9634,-6.96289 z" /><path
         id="path52"
         style="color:#000000;display:inline;fill:#ffd7e0;fill-opacity:0.1;-inkscape-stroke:none"
         d="m 124.09372,255.74821 c -3.59557,0 -6.56039,2.73595 -6.92464,6.23632 h -0.0791 v 39.33455 c -0.007,0.12982 -0.0119,0.26009 -0.0119,0.3917 0,0.13163 0.005,0.26238 0.0119,0.39223 v 0.8754 h 0.10542 c 0.59748,3.23697 3.43763,5.69526 6.84558,5.69526 3.40793,0 6.24809,-2.45829 6.84557,-5.69526 h 0.1292 v -39.51956 c 0.0263,-0.24579 0.0408,-0.49505 0.0408,-0.74775 0,-3.84097 -3.12191,-6.96289 -6.96288,-6.96289 z" /><path
         id="path23"
         style="color:#000000;display:inline;fill:#ffd7e0;fill-opacity:0.1;-inkscape-stroke:none"
         d="m 141.85712,126.2723 c -3.0017,0.77366 -5.22453,3.50261 -5.22453,6.74342 0,0.2536 0.015,0.50351 0.0416,0.75015 l -1e-4,69.11105 0.0363,-1.1e-4 c 0.11907,3.73711 3.19185,6.73843 6.95754,6.73843 3.84098,0 6.96273,-3.12213 6.96273,-6.96306 0,-0.21922 -0.0114,-0.43559 -0.0312,-0.64968 l -2.3e-4,-43.00433 10.0756,17.4508 c 0.0869,0.18706 0.1809,0.37215 0.28597,0.55413 1.92048,3.32638 6.18506,4.46934 9.51142,2.54885 3.32639,-1.92045 4.46934,-6.18505 2.54885,-9.51142 -0.0502,-0.0869 -0.1029,-0.17168 -0.15622,-0.2556 l 0.032,-0.0182 -23.50002,-40.70294 -0.051,0.0292 c -1.25491,-1.83441 -3.36323,-3.04045 -5.75,-3.04045 -0.60015,0 -1.18281,0.0765 -1.73869,0.21978 z"
         transform="rotate(14.999939)" /><path
         id="path23-4"
         style="color:#000000;display:inline;fill:#ffd7e0;fill-opacity:0.1;-inkscape-stroke:none"
         d="m 194.39736,157.70931 c 3.09965,-0.0296 5.95304,2.03106 6.79182,5.16145 0.0656,0.24496 0.11583,0.49023 0.15397,0.73535 l 17.88728,66.75615 -0.0351,0.009 c 0.85222,3.64059 -1.33906,7.33494 -4.97644,8.30957 -3.7101,0.99411 -7.53354,-1.21367 -8.52765,-4.92373 -0.0567,-0.21175 -0.10172,-0.42369 -0.13801,-0.63561 l -11.13007,-41.53907 -5.21571,19.46393 c -0.0355,0.20318 -0.0784,0.40629 -0.1328,0.60927 -0.99412,3.71009 -4.81757,5.91785 -8.52764,4.92372 -3.7101,-0.99408 -5.91786,-4.81755 -4.92373,-8.52764 0.026,-0.0969 0.055,-0.19246 0.0847,-0.28732 l -0.0356,-0.009 12.16463,-45.39826 0.0568,0.015 c 0.73737,-2.0967 2.46171,-3.80732 4.76715,-4.42506 0.5797,-0.15533 1.16231,-0.23224 1.73633,-0.23771 z" /></g></g></svg>
