<?xml version="1.0" encoding="UTF-8" standalone="no"?>
<!-- Created with Inkscape (http://www.inkscape.org/) -->

<svg
   width="512mm"
   height="512mm"
   viewBox="0 0 512 512"
   version="1.1"
   id="svg1"
   xml:space="preserve"
   xmlns:xlink="http://www.w3.org/1999/xlink"
   xmlns="http://www.w3.org/2000/svg"
   xmlns:svg="http://www.w3.org/2000/svg"><defs
     id="defs1"><linearGradient
       id="linearGradient349"><stop
         style="stop-color:#c1a0dc;stop-opacity:1;"
         offset="0"
         id="stop349" /><stop
         style="stop-color:#cebee1;stop-opacity:1;"
         offset="1"
         id="stop350" /></linearGradient><radialGradient
       xlink:href="#linearGradient349"
       id="radialGradient350-4"
       cx="201.09341"
       cy="264.29254"
       fx="201.09341"
       fy="264.29254"
       r="49.467869"
       gradientTransform="matrix(2.5040184,-1.2025206,0.37383559,0.77844371,-204.9875,122.55552)"
       gradientUnits="userSpaceOnUse" /><linearGradient
       xlink:href="#linearGradient8"
       id="linearGradient13"
       x1="115.85452"
       y1="381.52405"
       x2="483.3761"
       y2="47.326611"
       gradientUnits="userSpaceOnUse"
       gradientTransform="matrix(0.18362143,0.07453734,-0.07453723,0.18362172,368.61763,-8.3046299)" /><linearGradient
       id="linearGradient8"><stop
         style="stop-color:#7f609f;stop-opacity:1;"
         offset="0.27000001"
         id="stop8" /><stop
         style="stop-color:#7f609f;stop-opacity:0;"
         offset="0.43000001"
         id="stop9" /></linearGradient><filter
       style="color-interpolation-filters:sRGB"
       id="filter15"
       x="-0.039489254"
       y="-0.087264955"
       width="1.0789785"
       height="1.1743807"><feGaussianBlur
         stdDeviation="0.8709811"
         id="feGaussianBlur15" /></filter><filter
       style="color-interpolation-filters:sRGB"
       id="filter17"
       x="-0.039488511"
       y="-0.088080997"
       width="1.078977"
       height="1.1764361"><feGaussianBlur
         stdDeviation="0.87095331"
         id="feGaussianBlur17" /></filter><filter
       style="color-interpolation-filters:sRGB"
       id="filter18"
       x="-0.03813007"
       y="-0.093932757"
       width="1.0762601"
       height="1.1878655"><feGaussianBlur
         stdDeviation="0.82021704"
         id="feGaussianBlur18" /></filter><filter
       style="color-interpolation-filters:sRGB"
       id="filter19"
       x="-0.035513579"
       y="-0.035513786"
       width="1.0710272"
       height="1.0710276"><feGaussianBlur
         stdDeviation="1.2956655"
         id="feGaussianBlur19" /></filter><radialGradient
       xlink:href="#linearGradient349"
       id="radialGradient2"
       gradientUnits="userSpaceOnUse"
       gradientTransform="matrix(2.5040184,-1.2025206,0.37383559,0.77844371,-204.9875,122.55552)"
       cx="201.09341"
       cy="264.29254"
       fx="201.09341"
       fy="264.29254"
       r="49.467869" /></defs><g
     id="layer5"
     style="display:none"><rect
       style="display:inline;fill:#808080;fill-opacity:1;stroke:#999999;stroke-width:0.264448"
       id="rect1"
       width="511.73557"
       height="511.73557"
       x="0.1322237"
       y="0.1322237" /></g><g
     id="layer3"
     style="display:inline"><g
       id="g5"
       style="display:inline"
       transform="matrix(4.6755575,-1.8979434,1.8979406,4.6755503,-1707.7312,738.4441)"><path
         id="path18"
         style="display:inline;fill:url(#radialGradient2);fill-opacity:1;stroke:none;stroke-width:8.9434;stroke-linecap:round;stroke-opacity:0.839216;paint-order:markers stroke fill;filter:url(#filter19)"
         d="m 399.88933,14.507026 c -0.84762,-0.326971 -1.97151,-0.507079 -3.46153,-0.503144 -11.92017,0.03147 -0.34929,11.714908 -11.35004,16.305639 -9.96944,4.160372 -11.04091,-8.953808 -17.41111,-5.159248 -0.65882,0.392834 -1.37446,0.965987 -2.16259,1.758266 -2.4777,2.490817 -2.78869,4.252538 -2.12231,5.783464 L 392.08501,44.3435 a 14.239507,14.239529 29.940657 0 1 16.76982,6.293867 14.239507,14.239529 29.940657 0 1 0.25744,0.618 l 29.08993,11.808459 c 1.30009,-0.72056 2.12942,-2.225492 2.12105,-5.395369 -0.0315,-11.920166 -11.71484,-0.34917 -16.30555,-11.34992 -4.59073,-11.000766 11.85197,-11.16719 3.40088,-19.57377 -8.45106,-8.406588 -8.53047,8.037027 -19.55533,3.504438 -9.64672,-3.965992 -2.0406,-13.453382 -7.97392,-15.742179 z M 354.8839,52.504304 c -1.30025,0.720495 -2.12968,2.225376 -2.12132,5.395482 0.0315,11.920177 11.71538,0.348936 16.30609,11.349695 4.59073,11.000778 -11.85192,11.16711 -3.40084,19.573675 8.45107,8.406584 8.53041,-8.037028 19.55524,-3.504477 11.02484,4.532585 -0.48462,16.276821 11.43554,16.245361 11.92018,-0.0315 0.34928,-11.714891 11.35004,-16.305638 11.00075,-4.590732 11.16655,11.852401 19.57313,3.401302 2.47784,-2.490956 2.78872,-4.252749 2.1222,-5.783731 L 401.09304,71.261954 a 14.239507,14.239529 29.940657 0 1 -16.8724,-6.33385 14.239507,14.239529 29.940657 0 1 -0.25838,-0.62004 z"
         transform="translate(2.1729142e-6)" /><path
         id="path342-0"
         style="display:inline;fill:url(#radialGradient350-4);fill-opacity:1;stroke:none;stroke-width:8.9434;stroke-linecap:round;stroke-opacity:0.839216;paint-order:markers stroke fill"
         d="m 399.88933,14.507026 c -0.84762,-0.326971 -1.97151,-0.507079 -3.46153,-0.503144 -11.92017,0.03147 -0.34929,11.714908 -11.35004,16.305639 -9.96944,4.160372 -11.04091,-8.953808 -17.41111,-5.159248 -0.65882,0.392834 -1.37446,0.965987 -2.16259,1.758266 -2.4777,2.490817 -2.78869,4.252538 -2.12231,5.783464 L 392.08501,44.3435 a 14.239507,14.239529 29.940657 0 1 16.76982,6.293867 14.239507,14.239529 29.940657 0 1 0.25744,0.618 l 29.08993,11.808459 c 1.30009,-0.72056 2.12942,-2.225492 2.12105,-5.395369 -0.0315,-11.920166 -11.71484,-0.34917 -16.30555,-11.34992 -4.59073,-11.000766 11.85197,-11.16719 3.40088,-19.57377 -8.45106,-8.406588 -8.53047,8.037027 -19.55533,3.504438 -9.64672,-3.965992 -2.0406,-13.453382 -7.97392,-15.742179 z M 354.8839,52.504304 c -1.30025,0.720495 -2.12968,2.225376 -2.12132,5.395482 0.0315,11.920177 11.71538,0.348936 16.30609,11.349695 4.59073,11.000778 -11.85192,11.16711 -3.40084,19.573675 8.45107,8.406584 8.53041,-8.037028 19.55524,-3.504477 11.02484,4.532585 -0.48462,16.276821 11.43554,16.245361 11.92018,-0.0315 0.34928,-11.714891 11.35004,-16.305638 11.00075,-4.590732 11.16655,11.852401 19.57313,3.401302 2.47784,-2.490956 2.78872,-4.252749 2.1222,-5.783731 L 401.09304,71.261954 a 14.239507,14.239529 29.940657 0 1 -16.8724,-6.33385 14.239507,14.239529 29.940657 0 1 -0.25838,-0.62004 z" /><path
         id="path6"
         style="display:inline;fill:url(#linearGradient13);fill-rule:evenodd;stroke-width:0.0524333"
         d="m 406.38419,33.962266 a 25.902032,25.902072 0.66069767 0 0 -27.39861,5.063792 l 9.72043,3.945808 a 16.991779,16.991796 22.093683 0 1 14.40911,-0.77058 16.991779,16.991796 22.093683 0 1 9.79517,10.595812 l 9.5911,3.893308 a 25.902032,25.902072 0.66069767 0 0 -16.1172,-22.72814 z m -35.6172,24.989452 a 25.902032,25.902072 0.66069767 0 0 16.13259,23.010699 25.902032,25.902072 0.66069767 0 0 27.60773,-5.255217 l -9.57952,-3.888608 a 16.991779,16.991796 22.093683 0 1 -14.59462,0.8709 16.991779,16.991796 22.093683 0 1 -9.83958,-10.789462 z"
         transform="translate(2.1729142e-6)" /><path
         style="display:inline;opacity:1;fill:none;fill-opacity:0;stroke:#7f609f;stroke-width:2.89888;stroke-linecap:round;stroke-dasharray:none;stroke-opacity:1;paint-order:markers stroke fill;filter:url(#filter18)"
         d="m 351.37292,39.448152 c 2.74574,1.114561 5.49153,2.229008 8.23728,3.343554 4.10145,1.664848 8.73422,2.402826 12.30429,4.994669 4.1656,3.024181 5.03991,9.785646 9.82549,11.728254 4.78557,1.942607 10.1253,-2.296397 15.22016,-1.561488 4.44407,0.641037 8.88938,2.445517 12.52286,5.083398 4.1656,3.024181 5.03991,9.785646 9.82549,11.728254 4.78557,1.942607 10.1253,-2.296397 15.22016,-1.561488 2.37835,0.343066 4.37774,1.776445 6.48378,2.632162"
         id="path17"
         transform="translate(2.1729142e-6)" /><path
         style="display:inline;opacity:1;fill:none;fill-opacity:0;stroke:#7f609f;stroke-width:2.89888;stroke-linecap:round;stroke-dasharray:none;stroke-opacity:1;paint-order:markers stroke fill"
         d="m 351.37292,39.448152 c 2.74574,1.114561 5.49153,2.229008 8.23728,3.343554 4.10145,1.664848 8.73422,2.402826 12.30429,4.994669 4.1656,3.024181 5.03991,9.785646 9.82549,11.728254 4.78557,1.942607 10.1253,-2.296397 15.22016,-1.561488 4.44407,0.641037 8.88938,2.445517 12.52286,5.083398 4.1656,3.024181 5.03991,9.785646 9.82549,11.728254 4.78557,1.942607 10.1253,-2.296397 15.22016,-1.561488 2.37835,0.343066 4.37774,1.776445 6.48378,2.632162"
         id="path11" /><path
         style="display:inline;opacity:1;fill:none;fill-opacity:0;stroke:#c1a0dc;stroke-width:2.89888;stroke-linecap:round;stroke-dasharray:none;stroke-opacity:1;paint-order:markers stroke fill;filter:url(#filter17)"
         d="m 351.37299,39.447981 c 3.65148,0.83825 7.3379,-5.009873 10.716,-3.38986 5.92323,2.840569 1.34009,14.882749 7.12816,18.373125 4.41661,2.663338 10.43459,-3.504095 15.22017,-1.561487 4.78557,1.942606 4.80213,10.559635 9.82548,11.728254 6.58325,1.531508 11.33429,-9.737851 17.91754,-8.206341 5.02336,1.16862 5.03991,9.785643 9.82548,11.728249 4.78558,1.942608 10.80357,-4.224822 15.22017,-1.561483 2.66806,1.608916 3.46319,5.85797 3.78644,9.277028"
         id="path16"
         transform="translate(2.1729142e-6)" /><path
         style="display:inline;opacity:1;fill:none;fill-opacity:0;stroke:#c1a0dc;stroke-width:2.89888;stroke-linecap:round;stroke-dasharray:none;stroke-opacity:1;paint-order:markers stroke fill"
         d="m 351.37299,39.447981 c 3.65148,0.83825 7.3379,-5.009873 10.716,-3.38986 5.92323,2.840569 1.34009,14.882749 7.12816,18.373125 4.41661,2.663338 10.43459,-3.504095 15.22017,-1.561487 4.78557,1.942606 4.80213,10.559635 9.82548,11.728254 6.58325,1.531508 11.33429,-9.737851 17.91754,-8.206341 5.02336,1.16862 5.03991,9.785643 9.82548,11.728249 4.78558,1.942608 10.80357,-4.224822 15.22017,-1.561483 2.66806,1.608916 3.46319,5.85797 3.78644,9.277028"
         id="path12" /><path
         style="display:inline;opacity:1;fill:none;fill-opacity:0;stroke:#cebee1;stroke-width:2.89888;stroke-linecap:round;stroke-dasharray:none;stroke-opacity:1;paint-order:markers stroke fill;filter:url(#filter15)"
         d="m 351.37299,39.447981 c 3.20262,1.94403 1.76986,8.706983 5.32134,9.899883 6.22724,2.091656 11.32939,-9.714798 17.91751,-8.206356 5.09396,1.166332 5.18103,9.882736 10.04402,11.816964 4.73553,1.883548 10.63388,-4.262791 15.00162,-1.650198 5.8009,3.46985 1.34009,14.882757 7.12818,18.373136 4.41661,2.663338 10.43459,-3.504096 15.22016,-1.561489 4.78558,1.942608 4.80213,10.559634 9.82549,11.728254 3.44557,0.801568 6.21397,-1.471715 9.18112,-4.01271"
         id="path15"
         transform="translate(2.1729142e-6)" /><path
         style="display:inline;opacity:1;fill:none;fill-opacity:0;stroke:#cebee1;stroke-width:2.89888;stroke-linecap:round;stroke-dasharray:none;stroke-opacity:1;paint-order:markers stroke fill"
         d="m 351.37299,39.447981 c 3.20262,1.94403 1.76986,8.706983 5.32134,9.899883 6.22724,2.091656 11.32939,-9.714798 17.91751,-8.206356 5.09396,1.166332 5.18103,9.882736 10.04402,11.816964 4.73553,1.883548 10.63388,-4.262791 15.00162,-1.650198 5.8009,3.46985 1.34009,14.882757 7.12818,18.373136 4.41661,2.663338 10.43459,-3.504096 15.22016,-1.561489 4.78558,1.942608 4.80213,10.559634 9.82549,11.728254 3.44557,0.801568 6.21397,-1.471715 9.18112,-4.01271"
         id="path13" /></g></g><g
     id="layer4"
     style="display:none"><g
       id="g91"
       style="display:inline;fill:#ff9ba3;fill-opacity:1"
       transform="translate(-15.137506,-11.773615)"><path
         id="path61"
         style="color:#000000;display:inline;fill:#ffd7e0;fill-opacity:0.1;-inkscape-stroke:none"
         d="m 218.63265,127.64802 c -8.54821,0.9092 13.26343,92.50491 -2.86856,134.88893 -4.63429,-14.18486 -13.68463,-26.8982 -26.54567,-35.8066 -12.37795,-8.57384 -26.82189,-12.70458 -41.18146,-12.43335 -14.35964,0.27124 -28.63584,4.94538 -40.68124,13.98054 -14.697418,11.02445 -24.040923,27.06132 -26.956493,44.373 H 63.527389 c -3.588328,0 -7.714775,2.28402 -7.714775,6.92158 0,3.59555 2.717091,6.90855 6.236312,6.92464 l 17.414957,0.0796 c 0.08677,2.65222 0.290967,5.30976 0.684196,7.96282 h -16.56643 c -3.585319,0 -7.712708,2.28532 -7.712708,6.92209 0,3.59549 2.718923,6.91176 6.238379,6.92464 l 21.619352,0.0791 c 10.038035,27.23633 35.922138,45.55901 65.054428,45.79876 l 124.72262,0.0217 c 3.06361,0.006 6.97888,-2.41152 6.97888,-6.96088 0,-2.58326 -1.59919,-4.56199 -3.50624,-6.04149 -7.18522,-5.57434 -10.12754,-15.9213 -7.50756,-25.32921 2.75093,-9.87778 10.92716,-16.39894 20.11712,-16.63309 9.18996,-0.23415 17.61584,5.84233 20.8008,15.55667 3.09108,9.42806 0.63956,20.39587 -6.77737,26.05113 -2.14106,1.63251 -4.20491,3.52764 -4.20491,6.38824 0,3.83687 3.1155,6.95589 6.951,6.96236 l 19.88871,0.013 c 8.497,0.0108 16.6678,-3.40122 22.83013,-9.42579 l -0.007,-0.007 21.18217,-21.18217 21.17752,21.17752 c 0.10473,0.11619 0.25483,0.26275 0.37514,0.37521 l 0.0832,0.0832 c 0.0381,0.0381 0.0803,0.0706 0.11937,0.10748 9.67528,9.01381 23.69927,11.41876 35.64331,5.90455 12.02397,-5.55106 19.68882,-17.85142 20.07526,-31.41824 0.0169,-0.59404 0.0284,-0.40972 0.0341,-0.61494 0.23472,-8.47203 0,-25.42584 0,-25.42584 0,-2.86435 -2.0966,-6.29109 -6.0172,-6.29109 -3.92072,0 -6.01772,3.42674 -6.01772,6.29109 0,0 -0.0953,21.15072 0,25.42584 0.0953,4.27512 0.0122,0.154 0.0103,0.23099 -0.22733,9.25662 -5.46627,17.38368 -13.11186,20.91345 -7.73381,3.5705 -16.50099,2.03154 -22.82031,-4.14652 l -5.2e-4,5.2e-4 -21.08191,-21.08192 15.01923,-15.01923 c 2.25578,-2.25577 2.31672,-6.16857 0.007,-8.47856 -2.30999,-2.30985 -6.22394,-2.25008 -8.47958,0.006 l -1.63603,1.59882 c -7.85294,6.80556 -18.56875,6.9091 -26.52861,0.27491 l -1.97456,-1.97455 c -1.122,-1.122 -2.66092,-1.70398 -4.20956,-1.71566 -1.54865,-0.0117 -3.10702,0.54698 -4.26744,1.70739 -2.32084,2.32083 -2.23573,6.23301 0.008,8.477 l 15.12,15.12001 -21.08656,21.08657 -10e-4,-0.001 c -4.00984,3.92024 -9.13542,6.01669 -14.42961,6.00997 l -8.21242,0.01 c 5.70114,-9.05147 7.22044,-20.53938 3.73569,-31.16812 -4.56165,-13.91368 -17.00005,-23.56476 -31.12936,-23.81405 -0.45579,-0.008 -0.91343,-0.007 -1.37253,0.005 -14.69108,0.37431 -27.3063,10.83095 -31.36501,25.40465 -2.84872,10.22893 -1.16483,21.01318 4.22662,29.57235 l -112.74428,-0.0274 c -24.99746,0.0169 -47.14865,-15.9309 -55.062276,-39.64254 -7.913633,-23.71157 0.219837,-49.76801 20.216856,-64.76762 19.99702,-14.99966 47.28645,-15.51531 67.83565,-1.28158 20.12861,13.94246 29.24205,38.91171 23.01772,62.47836 -0.2028,0.82642 -0.44339,1.58262 -0.44339,2.44171 0,4.25344 3.50585,6.88706 8.0884,6.87094 l 22.48028,-0.0791 c 3.51925,-0.0124 6.23631,-3.32909 6.23631,-6.92465 0,-4.63713 -4.48767,-6.92208 -7.71064,-6.92208 h -15.47916 c 0.383,-2.65441 0.63108,-5.3124 0.71417,-7.96283 l 16.29565,-0.0791 c 3.51919,-0.0171 6.23631,-3.32912 6.23631,-6.92464 0,-4.63733 -4.07973,-6.92209 -7.71064,-6.92209 h -15.78457 c -0.0844,-0.49537 -0.23016,-0.97607 -0.32504,-1.46916 0.70689,-0.11603 1.54418,-0.27687 2.58175,-0.55811 18.56525,1.73334 69.61448,-1.8266 75.18869,-92.09929 3.22611,-52.24602 -3.47981,-39.5057 -16.79277,-9.43301 -6.03177,-30.21659 -8.34939,-21.75611 -11.73882,-1.02681 -0.20745,-1.129 -0.41218,-2.25508 -0.64337,-3.4091 -10.04893,-50.16082 -13.29844,-35.42454 -18.81901,-2.98689 -3.56413,-20.88281 -5.44311,-15.17604 -7.60987,1.55339 -0.98028,-2.16656 -1.96075,-4.33343 -3.07319,-6.58151 -10.34424,-20.9039 -15.8384,-29.18711 -18.46451,-28.9078 z" /><ellipse
         style="display:inline;fill:none;fill-opacity:1;stroke:#ffd7e0;stroke-width:5.996;stroke-linejoin:miter;stroke-dasharray:none;stroke-opacity:0.1"
         id="path5-0-7"
         ry="11.311218"
         rx="11.311267"
         cy="266.7865"
         cx="441.87775" /><path
         id="path46"
         style="color:#000000;display:inline;fill:#ffd7e0;fill-opacity:0.1;-inkscape-stroke:none"
         d="m 155.57397,255.74821 c -3.59557,0 -6.56039,2.73595 -6.92465,6.23632 h -0.0811 v 39.36193 c -0.006,0.12078 -0.01,0.24201 -0.01,0.36432 0,0.12232 0.004,0.24406 0.01,0.36484 v 0.90279 h 0.10801 c 0.59748,3.23697 3.43712,5.69526 6.84506,5.69526 3.40794,0 6.2481,-2.45829 6.84557,-5.69526 h 0.12919 v -39.51594 c 0.0266,-0.24697 0.0414,-0.49742 0.0414,-0.75137 0,-3.84097 -3.12243,-6.96289 -6.9634,-6.96289 z" /><path
         id="path52"
         style="color:#000000;display:inline;fill:#ffd7e0;fill-opacity:0.1;-inkscape-stroke:none"
         d="m 124.09372,255.74821 c -3.59557,0 -6.56039,2.73595 -6.92464,6.23632 h -0.0791 v 39.33455 c -0.007,0.12982 -0.0119,0.26009 -0.0119,0.3917 0,0.13163 0.005,0.26238 0.0119,0.39223 v 0.8754 h 0.10542 c 0.59748,3.23697 3.43763,5.69526 6.84558,5.69526 3.40793,0 6.24809,-2.45829 6.84557,-5.69526 h 0.1292 v -39.51956 c 0.0263,-0.24579 0.0408,-0.49505 0.0408,-0.74775 0,-3.84097 -3.12191,-6.96289 -6.96288,-6.96289 z" /><path
         id="path23"
         style="color:#000000;display:inline;fill:#ffd7e0;fill-opacity:0.1;-inkscape-stroke:none"
         d="m 141.85712,126.2723 c -3.0017,0.77366 -5.22453,3.50261 -5.22453,6.74342 0,0.2536 0.015,0.50351 0.0416,0.75015 l -1e-4,69.11105 0.0363,-1.1e-4 c 0.11907,3.73711 3.19185,6.73843 6.95754,6.73843 3.84098,0 6.96273,-3.12213 6.96273,-6.96306 0,-0.21922 -0.0114,-0.43559 -0.0312,-0.64968 l -2.3e-4,-43.00433 10.0756,17.4508 c 0.0869,0.18706 0.1809,0.37215 0.28597,0.55413 1.92048,3.32638 6.18506,4.46934 9.51142,2.54885 3.32639,-1.92045 4.46934,-6.18505 2.54885,-9.51142 -0.0502,-0.0869 -0.1029,-0.17168 -0.15622,-0.2556 l 0.032,-0.0182 -23.50002,-40.70294 -0.051,0.0292 c -1.25491,-1.83441 -3.36323,-3.04045 -5.75,-3.04045 -0.60015,0 -1.18281,0.0765 -1.73869,0.21978 z"
         transform="rotate(14.999939)" /><path
         id="path23-4"
         style="color:#000000;display:inline;fill:#ffd7e0;fill-opacity:0.1;-inkscape-stroke:none"
         d="m 194.39736,157.70931 c 3.09965,-0.0296 5.95304,2.03106 6.79182,5.16145 0.0656,0.24496 0.11583,0.49023 0.15397,0.73535 l 17.88728,66.75615 -0.0351,0.009 c 0.85222,3.64059 -1.33906,7.33494 -4.97644,8.30957 -3.7101,0.99411 -7.53354,-1.21367 -8.52765,-4.92373 -0.0567,-0.21175 -0.10172,-0.42369 -0.13801,-0.63561 l -11.13007,-41.53907 -5.21571,19.46393 c -0.0355,0.20318 -0.0784,0.40629 -0.1328,0.60927 -0.99412,3.71009 -4.81757,5.91785 -8.52764,4.92372 -3.7101,-0.99408 -5.91786,-4.81755 -4.92373,-8.52764 0.026,-0.0969 0.055,-0.19246 0.0847,-0.28732 l -0.0356,-0.009 12.16463,-45.39826 0.0568,0.015 c 0.73737,-2.0967 2.46171,-3.80732 4.76715,-4.42506 0.5797,-0.15533 1.16231,-0.23224 1.73633,-0.23771 z" /></g></g></svg>
